<?xml version="1.0" encoding="iso-8859-1"?>
<!-- Generator: Adobe Illustrator 19.0.0, SVG Export Plug-In . SVG Version: 6.00 Build 0)  -->
<svg version="1.1" id="Capa_1" xmlns="http://www.w3.org/2000/svg" xmlns:xlink="http://www.w3.org/1999/xlink" x="0px" y="0px"
	 viewBox="0 0 197.973 197.973" style="enable-background:new 0 0 197.973 197.973;" xml:space="preserve">
<rect x="37.546" y="8.533" style="fill:#DDDDDD;" width="157.013" height="23.893"/>
<path d="M194.559,35.84H37.546c-1.884,0-3.413-1.529-3.413-3.413V8.533c0-1.884,1.529-3.413,3.413-3.413h157.013
	c1.884,0,3.413,1.529,3.413,3.413v23.893C197.973,34.311,196.444,35.84,194.559,35.84z M40.959,29.013h150.187V11.946H40.959V29.013
	z"/>
<path d="M116.053,151.893c-1.884,0-3.413-1.529-3.413-3.413V35.84c0-1.884,1.529-3.413,3.413-3.413c1.884,0,3.413,1.529,3.413,3.413
	v112.64C119.466,150.364,117.937,151.893,116.053,151.893z"/>
<circle style="fill:#26BBEC;" cx="116.053" cy="168.96" r="20.48"/>
<path d="M116.053,192.853c-13.175,0-23.893-10.718-23.893-23.893c0-13.175,10.718-23.893,23.893-23.893s23.893,10.718,23.893,23.893
	C139.946,182.135,129.228,192.853,116.053,192.853z M116.053,151.893c-9.411,0-17.067,7.656-17.067,17.067
	c0,9.411,7.656,17.067,17.067,17.067s17.067-7.656,17.067-17.067C133.119,159.549,125.463,151.893,116.053,151.893z"/>
<path d="M163.839,151.893c-1.884,0-3.413-1.529-3.413-3.413V35.84c0-1.884,1.529-3.413,3.413-3.413c1.884,0,3.413,1.529,3.413,3.413
	v112.64C167.253,150.364,165.724,151.893,163.839,151.893z"/>
<circle style="fill:#EE5281;" cx="163.839" cy="168.96" r="20.48"/>
<path d="M163.839,192.853c-13.175,0-23.893-10.718-23.893-23.893c0-13.175,10.718-23.893,23.893-23.893
	c13.175,0,23.893,10.718,23.893,23.893C187.733,182.135,177.015,192.853,163.839,192.853z M163.839,151.893
	c-9.411,0-17.067,7.656-17.067,17.067c0,9.411,7.656,17.067,17.067,17.067c9.411,0,17.067-7.656,17.067-17.067
	C180.906,159.549,173.25,151.893,163.839,151.893z"/>
<path d="M43.154,143.186c-0.362,0-0.73-0.058-1.092-0.179c-1.787-0.602-2.744-2.54-2.142-4.326L75.936,31.954
	c0.602-1.787,2.538-2.749,4.325-2.142c1.787,0.602,2.744,2.54,2.142,4.326L46.387,140.865
	C45.907,142.288,44.579,143.186,43.154,143.186z"/>
<ellipse style="fill:#85D839;" cx="36.596" cy="159.175" rx="20.48" ry="20.48"/>
<path d="M36.628,183.082c-2.572,0-5.154-0.42-7.661-1.266c-6.047-2.039-10.936-6.313-13.769-12.032s-3.27-12.198-1.229-18.246
	c4.212-12.483,17.795-19.209,30.278-15c6.047,2.041,10.936,6.315,13.769,12.034c2.833,5.719,3.27,12.198,1.229,18.246l0,0
	c-2.039,6.047-6.313,10.938-12.032,13.771C43.864,182.244,40.258,183.082,36.628,183.082z M36.621,142.109
	c-7.125,0-13.785,4.497-16.186,11.612c-1.457,4.32-1.145,8.948,0.879,13.032s5.516,7.137,9.837,8.595
	c4.318,1.458,8.95,1.145,13.032-0.877c4.086-2.024,7.139-5.516,8.596-9.837l0,0c1.457-4.32,1.145-8.948-0.879-13.032
	s-5.516-7.137-9.837-8.595C40.261,142.397,38.427,142.109,36.621,142.109z"/>
<path d="M17.07,134.826c-1.103,0-2.185-0.532-2.843-1.521l-13.653-20.48c-1.044-1.568-0.621-3.688,0.947-4.733
	c1.567-1.05,3.686-0.621,4.733,0.947l13.653,20.48c1.044,1.568,0.621,3.688-0.947,4.733C18.379,134.642,17.72,134.826,17.07,134.826
	z"/>
<path d="M27.304,131.413c-1.485,0-2.852-0.978-3.28-2.476L10.371,81.15c-0.519-1.812,0.532-3.702,2.343-4.219
	c1.816-0.521,3.702,0.532,4.221,2.345l13.653,47.787c0.519,1.812-0.532,3.702-2.343,4.219
	C27.931,131.372,27.615,131.413,27.304,131.413z"/>
<path d="M182.613,25.6c-2.823,0-5.12-2.297-5.12-5.12s2.297-5.12,5.12-5.12c2.823,0,5.12,2.297,5.12,5.12S185.436,25.6,182.613,25.6
	z M182.613,18.773c-0.942,0-1.707,0.766-1.707,1.707c0,0.94,0.765,1.707,1.707,1.707c0.942,0,1.707-0.766,1.707-1.707
	C184.319,19.539,183.555,18.773,182.613,18.773z"/>
<path d="M49.493,25.6c-2.823,0-5.12-2.297-5.12-5.12s2.297-5.12,5.12-5.12s5.12,2.297,5.12,5.12S52.316,25.6,49.493,25.6z
	 M49.493,18.773c-0.942,0-1.707,0.766-1.707,1.707c0,0.94,0.765,1.707,1.707,1.707c0.942,0,1.707-0.766,1.707-1.707
	C51.199,19.539,50.435,18.773,49.493,18.773z"/>
<g>
</g>
<g>
</g>
<g>
</g>
<g>
</g>
<g>
</g>
<g>
</g>
<g>
</g>
<g>
</g>
<g>
</g>
<g>
</g>
<g>
</g>
<g>
</g>
<g>
</g>
<g>
</g>
<g>
</g>
</svg>
